<svg xmlns="http://www.w3.org/2000/svg"
shape-rendering="geometricPrecision"
width="4000" height="4000" viewBox="0 0 1024 1024">
  <metadata>null</metadata>

<path d="
M 45.958 432.605
C 47.678 419.2 49.285 405.677 54.446 393.051
C 59.484 380.726 65.875 369.088 73.925 358.474
C 90.425 336.721 115.08 320.501 141.107 312.58
C 154.146 308.612 167.162 307.176 180.699 306.692
C 180.694 311.353 180.51 316.069 180.668 320.712
C 180.72 322.254 180.396 324.242 180.741 325.705
C 139.747 323.728 99.589 349.163 79.118 383.875
C 72.582 394.959 68.401 407.661 66.291 420.302
C 62.602 442.397 64.182 465.127 73.748 485.674
C 77.006 492.673 80.299 499.562 85.014 505.747
C 92.43 515.473 101.239 524.132 108.281 534.14
C 111.798 539.138 114.36 544.767 116.927 550.292
C 118.747 554.208 121.019 558.2 122.296 562.329
C 123.604 566.56 124.148 571.033 125.49 575.28
C 126.122 577.28 128.859 580.121 131.331 579.447
C 131.924 569.205 131.085 558.963 131.392 548.724
C 131.53 544.115 131.679 539.503 131.856 534.893
C 131.945 532.599 132.434 530.023 132.03 527.758
C 131.261 526.519 129.637 525.7 128.574 524.694
C 125.738 522.01 122.922 519.294 120.135 516.56
C 112.531 509.101 104.923 501.644 97.38 494.122
C 94.864 491.613 91.962 489.263 89.58 486.687
C 89.37 485.669 89.626 484.575 89.589 483.534
C 89.451 479.59 89.598 475.666 89.628 471.719
C 89.672 466.051 89.782 460.385 89.824 454.718
C 89.845 451.897 89.551 448.939 89.831 446.138
C 79.854 443.497 79.578 428.346 86.473 422.697
C 87.59 421.783 88.555 420.643 89.969 420.182
C 96.392 418.084 104.376 421.201 107.477 427.251
C 109.24 430.69 108.999 435.944 107.536 439.48
C 106.098 442.955 102.838 444.604 99.854 446.428
C 99.281 448.653 99.793 451.685 99.812 454.001
C 99.856 459.337 99.89 464.671 99.885 470.008
C 99.882 472.339 99.875 474.67 99.85 477.001
C 99.837 478.137 99.579 479.418 99.902 480.513
C 101.617 482.854 104.05 484.794 106.041 486.907
C 110.445 491.577 114.939 496.139 119.432 500.725
C 126.767 508.214 133.747 516.891 142.219 523.112
C 142.609 528.831 142.132 534.757 142.163 540.501
C 142.232 553.334 142.319 566.167 142.321 579.001
C 142.322 583.668 142.285 588.337 142.322 593.004
C 142.332 594.359 142.894 596.934 141.915 598.015
C 140.685 598.535 139.056 598.155 137.766 598.059
C 135.737 597.909 133.688 597.967 131.654 597.923
C 128.741 597.86 125.51 597.953 122.753 596.906
C 118.15 595.157 112.77 592.657 109.857 588.483
C 107.594 585.241 107.148 580.448 106.168 576.681
C 104.46 570.108 102.642 563.326 99.465 557.288
C 97.603 553.75 95.932 550.074 93.706 546.74
C 88.321 538.675 81.465 531.908 75.456 524.371
C 71.786 519.768 68.477 514.758 65.267 509.827
C 56.283 496.026 50.983 480.928 47.983 464.818
C 46.014 454.243 45.01 443.352 45.958 432.605 Z
M 93.442 427.737
C 92.084 427.98 91.391 428.644 90.718 429.82
C 89.916 431.278 89.014 432.398 89.182 434.175
C 89.544 438.024 93.89 440.338 97.311 438.751
C 99.246 440.079 100.83 436.222 101.092 434.856
C 101.797 429.966 98.217 426.786 93.442 427.737 Z"
opacity="1" fill="rgb(1,1,54)" fill-rule="evenodd" />
<path d="
M 97.311 438.751
C 98.347 438.018 99.314 437.138 100.193 436.223
C 100.583 435.817 100.668 435.169 101.092 434.856
C 100.83 436.222 99.246 440.079 97.311 438.751 Z"
opacity="1" fill="rgb(4,9,85)" fill-rule="evenodd" />
<path d="
M 112.986 620.109
C 113.237 618.048 113.505 616.096 114.408 614.201
C 116.294 610.239 120.26 607.07 124.589 606.224
C 127.994 605.558 131.576 606.107 135.012 606.177
C 139.011 606.26 143.011 606.189 147.01 606.177
C 172.34 606.103 197.669 606.183 222.999 606.041
C 233.21 605.983 243.444 606.247 253.65 605.887
C 253.989 607.931 254.286 612.842 252.316 614.139
C 247.548 615.59 242.082 615.64 237.16 616.519
C 226.007 618.509 214.913 620.352 203.681 621.855
C 189.239 623.787 174.827 625.885 160.394 627.898
C 155.33 628.605 150.332 629.774 145.245 630.324
C 140.497 630.837 135.795 631.73 131.085 632.505
C 125.858 633.365 120.447 633.862 116.642 629.353
C 115.576 628.09 114.796 626.722 114.136 625.219
C 113.41 623.564 112.936 621.93 112.986 620.109 Z"
opacity="1" fill="rgb(1,1,60)" fill-rule="evenodd" />
<path d="
M 112.929 652.589
C 113.506 650.157 114.635 647.024 116.414 645.207
C 119.791 641.757 124.402 641.543 128.88 641.007
C 133.671 640.434 138.438 639.649 143.227 639.049
C 168.168 635.927 193.019 631.775 217.863 627.994
C 224.045 627.054 230.213 626.015 236.384 625.004
C 240.151 624.387 244.096 623.37 247.928 624.019
C 249.571 624.297 251.083 625.821 252.232 626.934
C 256.79 631.349 257.247 638.355 254.446 643.756
C 253.823 644.958 253.065 646.667 251.922 647.445
C 250.424 648.136 248.525 649.404 246.94 649.707
C 243.453 650.375 239.691 650.2 236.148 650.756
C 226.396 652.287 216.627 653.775 206.822 654.923
C 197.971 655.96 189.156 657.637 180.369 659.092
C 167.304 661.254 154.115 662.8 141.068 665.139
C 137.208 665.831 133.378 666.419 129.492 666.923
C 124.834 667.528 119.698 667.516 116.408 663.447
C 115.147 661.889 114.283 660.081 113.627 658.204
C 112.985 656.369 112.657 654.531 112.929 652.589 Z"
opacity="1" fill="rgb(1,2,61)" fill-rule="evenodd" />
<path d="
M 161.496 598.119
C 160.583 598.142 159.803 598.267 158.929 598.527
C 158.665 597.825 158.091 597.263 157.879 596.542
C 157.315 594.627 157.753 591.959 157.745 589.963
C 157.725 585.478 157.746 580.993 157.759 576.508
C 157.802 561.74 157.938 546.97 158.087 532.207
C 158.13 528.032 158.069 523.855 158.196 519.681
C 158.254 517.756 158.771 515.135 158.144 513.293
C 151.65 506.231 144.098 499.825 137.095 493.25
C 132.956 489.363 129.462 484.819 125.322 480.965
C 124.496 480.195 123.455 479.84 122.607 479.123
C 122.291 472.494 122.896 465.649 122.931 458.995
C 123.028 440.8 123.279 422.557 123.13 404.367
C 123.076 397.744 123.17 391.108 122.963 384.491
C 122.881 381.892 123.634 378.8 122.985 376.276
C 121.795 375.503 120.085 374.915 119.127 373.864
C 118.27 372.923 117.976 371.573 117.162 370.572
C 112.111 364.364 116.114 353.902 123.092 350.976
C 128.709 348.621 134.99 350.927 138.724 355.526
C 140.238 357.391 141.277 359.661 141.624 362.042
C 142.006 364.664 141.564 366.952 140.506 369.361
C 139.002 372.786 135.701 374.539 133.164 377.068
C 132.715 379.507 133.285 382.432 133.27 384.942
C 133.228 391.739 133.518 398.504 133.755 405.288
C 134.236 419.038 133.404 432.821 133.419 446.573
C 133.426 453.053 133.436 459.533 133.455 466.013
C 133.462 468.546 132.779 472.232 133.693 474.621
C 134.206 475.962 135.888 477.138 136.896 478.115
C 139.458 480.598 142.03 483.064 144.651 485.484
C 150.919 491.273 156.921 497.533 162.74 503.772
C 164.653 505.824 166.978 507.51 168.79 509.656
C 169.517 513.207 168.396 517.658 168.46 521.314
C 168.631 531.139 168.408 540.942 168.405 550.758
C 168.403 560.906 168.21 571.202 168.47 581.334
C 168.565 585.059 168.755 588.774 168.765 592.503
C 168.769 594.097 169.07 595.746 168.746 597.313
C 167.14 599.065 163.61 598.131 161.496 598.119 Z
M 122.919 362.562
C 120.856 369.182 132.003 371.879 133.865 365.613
C 134.854 362.284 132.12 357.775 128.509 357.744
C 125.905 357.721 123.647 360.224 122.919 362.562 Z"
opacity="1" fill="rgb(1,1,45)" fill-rule="evenodd" />
<path d="
M 124.749 676.895
C 127.996 675.744 131.027 675.506 134.412 675.003
C 138.553 674.388 142.67 673.63 146.814 673.029
C 156.056 671.689 165.239 670.04 174.468 668.625
C 186.127 666.838 197.758 664.768 209.467 663.34
C 218.82 662.2 228.12 660.536 237.424 659.056
C 240.513 658.564 245.443 656.653 248.487 657.974
C 257.681 661.966 259.402 675.751 250.907 681.499
C 247.786 683.611 243.616 683.517 240.032 684.003
C 234.154 684.802 228.355 686.11 222.51 687.087
C 217.481 687.928 212.48 688.874 207.47 689.825
C 205.316 690.233 203.263 691.023 201.067 691.214
C 195.426 691.704 189.659 691.272 184.004 691.258
C 176.462 691.239 168.922 691.509 161.383 691.649
C 157 691.73 152.619 691.733 148.235 691.757
C 145.8 691.77 143.069 692.078 140.691 691.45
C 138.77 690.943 136.956 689.431 135.408 688.241
C 131.583 685.301 126.963 681.246 124.749 676.895 Z"
opacity="1" fill="rgb(1,3,64)" fill-rule="evenodd" />
<path d="
M 159.9 395.875
C 159.987 398.946 159.692 401.838 159.543 404.863
C 159.878 405.71 162.762 405.4 163.583 405.378
C 166.719 405.291 169.854 405.369 172.99 405.265
C 174.532 405.214 176.295 405.787 176.229 403.958
C 176.293 402.224 176.308 400.328 177.49 398.967
C 179.774 398.345 182.613 398.614 184.984 398.581
C 187.954 398.707 191.004 398.918 193.972 398.637
C 196.972 398.597 199.998 398.62 202.999 398.704
C 205.96 398.64 209.03 398.505 211.979 398.269
C 214.649 398.171 217.331 398.238 220.003 398.249
C 221.087 398.254 222.454 397.994 223.441 398.498
C 224.17 399.562 224.392 400.689 224.361 401.968
C 224.55 406.291 224.835 410.624 224.3 414.96
C 224.591 417.639 224.247 420.349 224.169 423.026
C 224.104 425.294 224.728 427.611 224.561 429.871
C 224.354 432.69 223.828 435.408 223.774 438.246
C 223.712 441.585 224.77 444.754 224.779 447.992
C 224.785 450.188 223.742 452.28 223.815 454.494
C 223.834 455.07 224.46 455.166 224.486 455.909
C 224.551 457.844 224.206 459.715 224.196 461.624
C 224.184 463.857 224.62 466.146 224.686 468.402
C 224.54 469.181 224.558 469.773 224.644 470.56
C 224.984 471.148 224.952 470.87 224.909 471.355
C 223.458 473.697 224.314 477.901 224.756 480.45
C 223.835 484.298 224.895 488.565 224.65 492.431
C 224.533 493.397 224.553 494.367 224.373 495.327
C 223.81 496.198 222.903 496.905 222.018 497.431
C 219.784 497.722 217.253 497.635 214.994 497.56
C 213.827 497.521 213.156 496.96 211.962 497.252
C 211.454 497.171 210.995 497.199 210.482 497.202
C 206.099 497.374 201.862 496.747 197.491 496.677
C 196.221 496.656 193.762 496.12 192.816 497.157
C 192.157 497.071 191.643 497.198 190.99 497.29
C 189.329 497.281 187.67 497.224 186.01 497.168
C 182.926 496.72 179.665 497.092 176.644 496.335
C 175.497 495.312 175.818 493.003 175.803 491.61
C 175.771 488.516 175.938 485.437 176.036 482.347
C 176.07 481.262 176.497 479.623 175.985 478.611
C 169.136 478.85 161.704 477.784 154.942 478.941
C 154.558 478.418 154.694 477.56 154.685 476.923
C 154.66 475.142 154.373 472.851 155.148 471.216
C 155.933 470.355 156.939 470.56 157.979 470.807
C 159.357 471.595 161.447 471.165 162.982 471.16
C 166.99 471.146 171.001 470.863 175.007 470.924
C 176.327 471.011 175.898 470.089 176.085 468.942
C 176.432 466.812 175.713 464.295 176.239 462.276
C 175.328 462.31 174.418 462.285 173.507 462.318
C 170.836 462.353 168.165 462.373 165.494 462.367
C 164.443 462.365 162.918 462.017 161.986 462.584
C 159.802 462.592 157.409 462.919 155.255 462.624
C 154.893 460.183 154.032 456.644 155.489 454.429
C 156.124 454.073 156.739 454.194 157.435 454.28
C 158.89 454.901 160.526 454.674 162.071 454.72
C 165.055 454.808 167.988 454.996 170.99 454.998
C 172.163 454.999 174.635 455.419 175.547 454.527
C 175.756 454.003 176.023 453.445 175.801 452.886
C 176.299 451.336 176 449.598 175.92 447.997
C 175.891 447.417 176.083 446.631 175.839 446.121
C 171.397 446.286 166.939 446.175 162.491 446.173
C 160.04 446.171 157.538 446.492 155.101 446.196
C 154.449 444.356 154.175 438.378 156.421 437.714
C 157.335 439.696 161.605 438.642 163.494 438.9
C 167.945 439.509 176.127 440.907 176.925 434.821
C 177.027 434.047 176.138 433.375 176.078 432.516
C 176.006 431.481 176.033 430.414 175.523 429.475
C 173.434 430.142 171.15 429.891 168.978 429.88
C 165.818 429.863 162.657 429.91 159.497 429.895
C 158.492 429.912 155.858 430.554 155.09 429.927
C 155.014 428.105 153.615 421.741 156.93 422.276
C 158.151 423.172 160.529 422.638 161.991 422.662
C 166.417 422.737 171.933 423.621 176.17 422.089
C 176.894 419.939 176.702 417.7 176.584 415.332
C 176.561 414.872 176.46 413.23 176.024 413.074
C 174.137 413.689 171.964 413.428 169.995 413.451
C 166.891 413.487 163.618 413.916 160.537 413.376
C 158.291 412.982 156.341 411.925 153.995 411.87
C 153.27 411.468 152.563 411.095 151.795 410.783
C 151.104 409.12 151.319 406.864 151.307 405.085
C 151.281 401.41 151.442 397.75 151.315 394.072
C 150.408 393.271 149.106 392.859 148.083 392.205
C 146.651 391.291 144.989 389.246 144.238 387.731
C 143.164 385.563 142.348 382.929 142.41 380.493
C 142.457 378.653 143.071 376.871 143.841 375.219
C 144.859 373.038 146.381 370.651 148.486 369.363
C 149.512 368.735 150.777 368.865 151.907 368.58
C 154.694 367.877 158.22 367.836 160.917 369.053
C 168.147 372.315 170.783 381.542 166.561 387.984
C 164.728 390.781 162.616 391.989 159.922 393.835
C 159.923 394.516 159.876 395.196 159.9 395.875 Z
M 161.842 380.9
C 160.824 378.525 159.639 376.687 157.037 375.855
C 155.89 374.512 156.833 375.677 155.483 375.555
C 154.976 375.509 155.108 375.153 154.824 374.812
C 154.489 374.408 153.41 374.565 152.973 374.675
C 149.932 375.438 150.166 378.589 149.79 380.855
C 149.568 382.195 149.29 382.981 150.052 384.254
C 151.24 386.239 153.027 387.968 155.492 387.81
C 158.505 387.617 163.172 384.507 161.842 380.9 Z"
opacity="1" fill="rgb(1,3,57)" fill-rule="evenodd" />
<path d="
M 148.191 696.359
C 155.568 695.851 163.104 696.315 170.505 696.283
C 188.858 696.202 207.416 696.32 225.723 695.158
C 225.595 696.639 224.12 698.194 223.124 699.236
C 220.441 702.047 217.445 704.558 214.594 707.188
C 211.823 709.744 208.835 712.81 205.187 714.134
C 202.374 715.155 198.882 714.465 195.96 714.445
C 191.28 714.414 186.611 714.883 181.916 714.77
C 179.441 714.711 176.96 714.671 174.486 714.777
C 173.092 714.837 171.534 715.162 170.179 714.713
C 165.677 713.222 162.001 709.352 158.55 706.29
C 154.946 703.092 150.928 700.407 148.191 696.359 Z"
opacity="1" fill="rgb(1,3,54)" fill-rule="evenodd" />
<path d="
M 157.037 375.855
C 155.905 375.649 154.785 375.492 153.664 375.855
C 146.75 378.099 151.319 389.44 157.654 386.151
C 158.632 385.642 159.401 384.977 160.116 384.148
C 160.836 383.313 161.715 382.008 161.842 380.9
C 163.172 384.507 158.505 387.617 155.492 387.81
C 153.027 387.968 151.24 386.239 150.052 384.254
C 149.29 382.981 149.568 382.195 149.79 380.855
C 150.166 378.589 149.932 375.438 152.973 374.675
C 153.41 374.565 154.489 374.408 154.824 374.812
C 155.108 375.153 154.976 375.509 155.483 375.555
C 156.833 375.677 155.89 374.512 157.037 375.855 Z"
opacity="1" fill="rgb(54,56,140)" fill-rule="evenodd" />
<path d="
M 153.995 411.87
C 156.341 411.925 158.291 412.982 160.537 413.376
C 163.618 413.916 166.891 413.487 169.995 413.451
C 171.964 413.428 174.137 413.689 176.024 413.074
C 176.46 413.23 176.561 414.872 176.584 415.332
C 176.702 417.7 176.894 419.939 176.17 422.089
C 171.933 423.621 166.417 422.737 161.991 422.662
C 160.529 422.638 158.151 423.172 156.93 422.276
C 161.215 421.148 166.072 421.848 170.515 421.795
C 171.774 421.78 174.52 422.204 175.517 421.39
C 176.376 419.331 175.696 415.906 175.473 413.718
C 170.869 412.98 165.596 413.737 160.897 413.609
C 158.713 413.549 155.657 413.427 153.995 411.87 Z"
opacity="0.996" fill="rgb(74,68,150)" fill-rule="evenodd" />
<path d="
M 156.421 437.714
C 161.247 437.155 166.293 438.226 171.16 438.091
C 172.546 438.053 175.576 438.158 176.105 436.565
C 176.171 434.685 176.087 431.89 175.547 430.122
C 174.498 429.802 173.088 430.066 171.979 430.068
C 169.147 430.074 166.315 430.062 163.483 430.049
C 162.214 430.044 160.72 430.272 159.497 429.895
C 162.657 429.91 165.818 429.863 168.978 429.88
C 171.15 429.891 173.434 430.142 175.523 429.475
C 176.033 430.414 176.006 431.481 176.078 432.516
C 176.138 433.375 177.027 434.047 176.925 434.821
C 176.127 440.907 167.945 439.509 163.494 438.9
C 161.605 438.642 157.335 439.696 156.421 437.714 Z"
opacity="1" fill="rgb(73,76,145)" fill-rule="evenodd" />
<path d="
M 175.801 452.886
C 176.023 453.445 175.756 454.003 175.547 454.527
C 174.635 455.419 172.163 454.999 170.99 454.998
C 167.988 454.996 165.055 454.808 162.071 454.72
C 160.526 454.674 158.89 454.901 157.435 454.28
C 158.149 453.449 160.149 453.857 161.145 453.896
C 164.663 454.034 168.016 454.309 171.598 454.198
C 172.992 454.155 175.359 454.545 175.801 452.886 Z"
opacity="1" fill="rgb(48,41,140)" fill-rule="evenodd" />
<path d="
M 157.979 470.807
C 161.685 469.927 165.791 470.943 169.633 470.812
C 171.216 470.758 173.542 470.261 175.007 470.924
C 171.001 470.863 166.99 471.146 162.982 471.16
C 161.447 471.165 159.357 471.595 157.979 470.807 Z"
opacity="1" fill="rgb(58,59,152)" fill-rule="evenodd" />
<path d="
M 159.9 395.875
C 160.72 398.288 160.146 401.683 160.154 404.223
C 161.23 404.592 162.642 404.422 163.776 404.436
C 166.62 404.471 169.503 404.472 172.343 404.314
C 172.973 404.279 176.031 404.401 176.229 403.958
C 176.295 405.787 174.532 405.214 172.99 405.265
C 169.854 405.369 166.719 405.291 163.583 405.378
C 162.762 405.4 159.878 405.71 159.543 404.863
C 159.692 401.838 159.987 398.946 159.9 395.875 Z"
opacity="1" fill="rgb(81,85,166)" fill-rule="evenodd" />
<path d="
M 173.507 462.318
C 172.307 462.783 170.748 462.497 169.481 462.5
C 166.983 462.506 164.484 462.555 161.986 462.584
C 162.918 462.017 164.443 462.365 165.494 462.367
C 168.165 462.373 170.836 462.353 173.507 462.318 Z"
opacity="0.996" fill="rgb(150,152,191)" fill-rule="evenodd" />
<path d="
M 185.372 394.511
C 186.171 391.087 185.6 386.992 185.543 383.504
C 185.49 380.289 185.978 376.659 185.388 373.499
C 185.337 368.609 185.526 363.7 185.073 358.824
C 185.841 357.28 188.36 355.896 189.651 354.693
C 192.557 351.987 195.486 349.218 198.523 346.662
C 201.155 344.446 204.513 342.519 205.783 339.14
C 206.331 337.68 206.298 336.086 206.375 334.553
C 203.701 332.336 200.873 330.961 199.098 327.792
C 194.198 319.047 201.673 307.02 211.948 308.793
C 213.777 309.109 215.538 310.024 217.033 311.098
C 218.606 312.227 219.989 313.793 220.968 315.458
C 222.049 317.296 222.363 319.451 222.344 321.56
C 222.323 323.929 221.83 326.163 220.72 328.272
C 219.885 329.859 218.722 331.444 217.034 332.168
C 215.54 332.809 213.76 332.872 212.558 334.041
C 212.002 338.085 213.547 341.846 211.549 345.705
C 210.464 347.8 208.263 349.014 206.48 350.44
C 203.418 352.889 200.421 355.484 197.598 358.205
C 196.35 359.408 194.655 360.419 193.651 361.829
C 193.805 367.549 193.753 373.285 193.811 379.007
C 193.835 382.843 193.818 386.684 193.813 390.519
C 193.813 392.863 193.096 396.44 193.972 398.637
C 191.004 398.918 187.954 398.707 184.984 398.581
C 185.749 398.3 185.392 395.234 185.372 394.511 Z
M 204.402 321.097
C 204.224 322.39 204.106 323.763 204.825 324.921
C 207.447 329.143 215.011 328.057 215.818 323.018
C 216.599 318.142 210.494 312.484 206.216 316.749
C 205.073 317.889 204.617 319.541 204.402 321.097 Z"
opacity="1" fill="rgb(16,107,197)" fill-rule="evenodd" />
<path d="
M 185.178 499.909
C 186.719 499.225 188.565 499.974 190.039 500.477
C 190.19 501.779 191.252 501.922 191.589 502.956
C 191.966 504.11 191.255 505.351 191.92 506.496
C 192.518 514.522 192.341 522.658 192.412 530.715
C 192.533 544.271 192.661 557.854 192.65 571.425
C 192.645 577.501 192.117 583.559 192.104 589.64
C 192.099 591.721 191.557 594.986 192.508 596.861
C 192.958 597.273 193.286 597.348 193.885 597.283
C 191.617 598.647 187.139 597.528 184.664 597.169
C 185.436 588.81 185.109 580.394 185.111 572.003
C 185.115 556.662 184.85 541.325 184.885 525.983
C 184.897 520.655 184.871 515.328 184.85 510
C 184.837 506.653 184.589 503.218 185.178 499.909 Z"
opacity="1" fill="rgb(12,115,214)" fill-rule="evenodd" />
<path d="
M 185.388 373.499
C 185.978 376.659 185.49 380.289 185.543 383.504
C 185.6 386.992 186.171 391.087 185.372 394.511
C 185.046 387.519 185.467 380.497 185.388 373.499 Z"
opacity="1" fill="rgb(76,178,232)" fill-rule="evenodd" />
<path d="
M 186.01 497.168
C 187.67 497.224 189.329 497.281 190.99 497.29
C 190.398 498.257 190.163 499.361 190.039 500.477
C 188.565 499.974 186.719 499.225 185.178 499.909
C 185.326 498.994 185.581 497.968 186.01 497.168 Z"
opacity="1" fill="rgb(67,155,223)" fill-rule="evenodd" />
<path d="
M 190.99 497.29
C 191.643 497.198 192.157 497.071 192.816 497.157
C 192.284 500.28 192.162 503.303 191.92 506.496
C 191.255 505.351 191.966 504.11 191.589 502.956
C 191.252 501.922 190.19 501.779 190.039 500.477
C 190.163 499.361 190.398 498.257 190.99 497.29 Z"
opacity="1" fill="rgb(2,77,197)" fill-rule="evenodd" />
<path d="
M 192.816 497.157
C 193.762 496.12 196.221 496.656 197.491 496.677
C 201.862 496.747 206.099 497.374 210.482 497.202
C 210.253 498.786 208.382 497.688 207.239 498.032
C 206.276 499.027 207.316 501.153 207.253 502.506
C 207.147 503.596 207.005 503.732 208.169 503.934
C 208.412 504.961 209.077 505.85 209.312 506.852
C 209.653 508.306 208.98 509.584 210.906 509.97
C 211.507 512.526 211.541 514.922 211.536 517.545
C 211.533 518.742 211.188 520.408 211.724 521.506
C 211.733 522.505 211.731 523.504 211.732 524.503
C 211.159 525.309 211.433 526.541 211.434 527.483
C 211.437 529.963 211.356 532.44 211.346 534.92
C 211.318 542.277 211.322 549.61 211.45 556.967
C 211.487 559.139 211.543 561.31 211.598 563.482
C 211.622 564.427 211.43 565.62 211.804 566.502
C 211.779 571.668 211.761 576.834 211.784 581.999
C 210.758 582.77 211.395 584.389 211.292 585.456
C 211.048 587.959 210.832 590.428 210.81 593.004
C 210.799 594.246 210.436 595.855 212.092 595.969
C 212.02 596.665 211.741 597.051 211.3 597.573
C 209.462 598.443 205.569 597.589 203.535 597.36
C 203.136 596.937 203.339 596.236 203.373 595.674
C 203.461 594.196 203.369 592.71 203.376 591.229
C 203.404 585.154 203.569 579.08 203.587 573.001
C 203.637 555.834 203.53 538.667 203.714 521.5
C 203.796 513.877 203.091 506.124 203.929 498.537
C 203.552 497.574 202.331 497.666 201.439 497.658
C 199.004 497.637 196.315 497.276 193.989 498.105
C 193.175 499.685 193.818 502.226 193.817 503.991
C 193.815 508.823 193.827 513.659 193.784 518.49
C 193.619 536.827 194.153 555.144 194.09 573.495
C 194.069 579.526 194.155 585.551 193.877 591.577
C 193.816 592.901 193.815 594.214 193.958 595.532
C 194.005 595.962 194.338 597.032 193.885 597.283
C 193.286 597.348 192.958 597.273 192.508 596.861
C 191.557 594.986 192.099 591.721 192.104 589.64
C 192.117 583.559 192.645 577.501 192.65 571.425
C 192.661 557.854 192.533 544.271 192.412 530.715
C 192.341 522.658 192.518 514.522 191.92 506.496
C 192.162 503.303 192.284 500.28 192.816 497.157 Z"
opacity="1" fill="rgb(18,130,208)" fill-rule="evenodd" />
<path d="
M 203.3 394.01
C 203.936 391.831 203.733 389.25 203.638 387.011
C 203.595 386.002 203.725 384.9 203.276 383.97
C 203.337 380.321 203.2 376.657 203.17 373.007
C 203.157 371.384 202.879 369.394 203.537 367.862
C 204.723 365.099 209.722 363.24 212.138 361.66
C 216.36 358.898 220.324 355.762 224.48 352.907
C 226.873 351.263 229.92 349.713 231.977 347.683
C 232.383 346.71 232.401 345.587 232.411 344.544
C 230.132 341.973 227.221 340.785 226.04 337.227
C 225.292 334.972 224.999 332.43 225.551 330.099
C 226.038 328.044 226.93 326.093 228.149 324.368
C 231.409 319.754 239.038 318.281 243.828 321.582
C 249.848 325.731 251.437 334.056 247.131 339.95
C 245.319 342.429 243.311 342.986 240.665 344.284
C 240.41 347.267 240.494 350.431 239.847 353.354
C 239.282 354.147 238.331 354.44 237.5 354.882
C 235.614 355.882 233.732 356.891 231.86 357.917
C 226.695 360.745 222.086 364.466 217.205 367.725
C 215.64 368.771 214.131 369.894 212.611 371.004
C 212.097 371.38 211.075 371.663 210.733 372.162
C 211.113 374.35 210.853 376.779 210.867 379.001
C 210.895 383.313 210.842 387.629 210.922 391.941
C 210.945 393.18 210.538 397.84 211.979 398.269
C 209.03 398.505 205.96 398.64 202.999 398.704
C 202.294 397.757 203.282 395.239 203.3 394.01 Z
M 231.444 331.607
C 231.273 333.238 231.548 335.027 232.681 336.282
C 235.977 339.936 242.586 337.826 243.019 332.925
C 243.7 325.223 232.293 323.525 231.444 331.607 Z"
opacity="1" fill="rgb(18,108,195)" fill-rule="evenodd" />
<path d="
M 203.276 383.97
C 203.725 384.9 203.595 386.002 203.638 387.011
C 203.733 389.25 203.936 391.831 203.3 394.01
C 203.284 390.685 203.079 387.29 203.276 383.97 Z"
opacity="1" fill="rgb(68,161,233)" fill-rule="evenodd" />
<path d="
M 210.482 497.202
C 210.995 497.199 211.454 497.171 211.962 497.252
C 212.132 497.967 211.9 497.832 212.448 497.894
C 211.363 498.549 211.358 499.857 211.354 501.001
C 209.932 500.214 208.694 500.22 208.179 501.932
C 207.871 502.124 207.562 502.316 207.253 502.506
C 207.316 501.153 206.276 499.027 207.239 498.032
C 208.382 497.688 210.253 498.786 210.482 497.202 Z"
opacity="1" fill="rgb(55,142,219)" fill-rule="evenodd" />
<path d="
M 207.253 502.506
C 207.562 502.316 207.871 502.124 208.179 501.932
C 208.098 502.616 208.112 503.248 208.169 503.934
C 207.005 503.732 207.147 503.596 207.253 502.506 Z"
opacity="1" fill="rgb(5,134,223)" fill-rule="evenodd" />
<path d="
M 211.354 501.001
C 211.379 501.654 211.37 501.325 211.382 501.986
C 211.374 503.866 211.649 505.719 211.495 507.606
C 211.424 508.475 210.929 509.112 210.906 509.97
C 208.98 509.584 209.653 508.306 209.312 506.852
C 209.077 505.85 208.412 504.961 208.169 503.934
C 208.112 503.248 208.098 502.616 208.179 501.932
C 208.694 500.22 209.932 500.214 211.354 501.001 Z"
opacity="0.996" fill="rgb(13,113,197)" fill-rule="evenodd" />
<path d="
M 211.382 501.986
C 212.234 503.579 211.719 506.236 211.701 508.002
C 211.656 512.502 211.691 517.006 211.724 521.506
C 211.188 520.408 211.533 518.742 211.536 517.545
C 211.541 514.922 211.507 512.526 210.906 509.97
C 210.929 509.112 211.424 508.475 211.495 507.606
C 211.649 505.719 211.374 503.866 211.382 501.986 Z"
opacity="1" fill="rgb(137,158,203)" fill-rule="evenodd" />
<path d="
M 211.784 581.999
C 211.801 586.689 211.885 591.315 212.092 595.969
C 210.436 595.855 210.799 594.246 210.81 593.004
C 210.832 590.428 211.048 587.959 211.292 585.456
C 211.395 584.389 210.758 582.77 211.784 581.999 Z"
opacity="1" fill="rgb(136,157,215)" fill-rule="evenodd" />
<path d="
M 211.732 524.503
C 211.739 538.503 211.811 552.502 211.804 566.502
C 211.43 565.62 211.622 564.427 211.598 563.482
C 211.543 561.31 211.487 559.139 211.45 556.967
C 211.322 549.61 211.318 542.277 211.346 534.92
C 211.356 532.44 211.437 529.963 211.434 527.483
C 211.433 526.541 211.159 525.309 211.732 524.503 Z"
opacity="1" fill="rgb(121,153,205)" fill-rule="evenodd" />
<path d="
M 211.962 497.252
C 213.156 496.96 213.827 497.521 214.994 497.56
C 217.253 497.635 219.784 497.722 222.018 497.431
C 221.128 497.903 219.97 497.667 218.991 497.677
C 216.802 497.698 214.626 497.668 212.448 497.894
C 211.9 497.832 212.132 497.967 211.962 497.252 Z"
opacity="1" fill="rgb(18,130,208)" fill-rule="evenodd" />
<path d="
M 238.109 549.026
C 238.012 549.002 237.915 548.978 237.818 548.955
C 237.686 548.182 237.483 547.496 237.3 546.727
C 237.638 545.888 238.974 545.486 239.715 545.091
C 241.281 544.254 245.028 542.329 245.239 540.336
C 245.525 537.642 246.021 534.669 245.408 531.963
C 244.866 529.568 242.136 527.677 240.162 526.54
C 237.415 524.958 235.877 523.414 232.48 523.838
C 221.01 525.27 220.922 544.055 231.937 546.489
C 231.869 547.323 231.273 548.055 231.141 548.901
C 230.824 550.916 231.808 554.609 230.511 556.016
C 230.482 553.993 230.332 552.02 230.448 549.99
C 230.489 549.28 230.916 548.338 230.68 547.683
C 229.84 546.426 227.63 545.632 226.443 544.602
C 223.165 541.756 221.777 537.82 222.288 533.515
C 222.823 529.012 226.454 523.996 231.005 522.812
C 237.424 521.143 245 525.142 246.722 531.693
C 247.692 535.382 247.188 540.479 244.373 543.299
C 243.346 544.329 241.826 545.349 240.489 545.922
C 239.83 546.204 238.26 546.552 238.003 547.336
C 237.876 547.722 238.07 548.599 238.109 549.026 Z"
opacity="1" fill="rgb(53,159,231)" fill-rule="evenodd" />
<path d="
M 224.3 414.96
C 224.717 414.762 224.976 414.517 225.306 414.198
C 224.209 416.552 224.429 419.605 224.96 422.116
C 225.112 422.835 225.128 424.299 225.876 424.575
C 234.516 424.118 243.358 424.657 252.012 424.786
C 254.075 424.817 256.182 424.771 258.237 424.987
C 259.774 425.149 260.773 425.652 262.238 424.926
C 263.971 423.416 265.064 420.761 266.464 418.916
C 269.524 414.879 272.965 411.086 276.234 407.212
C 277.936 405.194 279.487 402.457 281.51 400.789
C 284.247 400.237 287.111 400.694 289.855 400.322
C 290.499 400.235 292.121 400.584 292.337 399.925
C 293.029 401.188 291.063 401.27 290.313 401.422
C 287.897 401.908 285.243 401.879 282.787 401.783
C 280.94 402.276 278.753 406.07 277.488 407.549
C 274.377 411.187 271.066 414.769 268.196 418.599
C 266.661 420.649 265.167 424.023 263.079 425.513
C 262.343 426.038 261.144 426.048 260.282 426.121
C 257.911 426.322 255.518 426.228 253.141 426.26
C 244.387 426.377 235.395 425.014 226.65 426.379
C 225.162 427.58 225.865 430.775 225.887 432.494
C 223.944 434.552 224.663 439.07 224.958 441.637
C 225.068 442.592 225.08 443.645 225.477 444.525
C 241.637 444.17 257.827 444.499 274.005 444.329
C 278.335 444.283 282.683 444.151 287.011 444.299
C 288.591 444.353 291.159 445.088 292.633 444.528
C 295.935 440.963 299.163 437.361 302.786 434.105
C 304.678 432.404 307.58 430.603 308.573 428.221
C 310.536 425.232 314.886 426.38 317.918 426.17
C 318.619 426.126 319.292 426.09 319.994 426.141
C 320.793 426.168 321.59 426.209 322.389 426.241
C 324.43 427.178 323.984 429.674 325.464 431.186
C 327.92 433.694 333.54 432.482 336.05 430.618
C 338.196 429.024 337.171 424.278 336.261 422.249
C 335.932 421.516 335.287 420.796 335.188 419.981
C 335.059 418.919 335.861 417.707 337.025 417.904
C 338.333 418.508 339.123 419.819 340.408 420.536
C 341.959 424.21 342.948 427.076 341.347 430.944
C 340.565 432.607 339.598 434.141 338.165 435.321
C 333.975 437.979 328.435 439.768 323.815 437.125
C 321.535 435.822 319.705 432.355 316.915 432.314
C 314.37 432.276 312.457 434.245 310.782 435.937
C 307.7 439.05 304.804 442.378 302.007 445.748
C 300.738 447.276 299.142 448.766 298.177 450.505
C 299.328 452.822 301.467 454.755 303.248 456.596
C 305.377 458.797 307.465 461.173 309.831 463.122
C 311.249 464.289 313.355 465.613 315.288 465.041
C 317.052 464.52 318.582 462.101 320.022 460.982
C 322.329 459.189 325.159 458.618 328.011 458.695
C 328.121 460.526 329.613 459.879 330.913 460.365
C 332.222 460.853 333.492 461.723 334.553 462.619
C 339.042 466.407 340.051 476.888 333.967 479.921
C 333.242 479.947 333.162 479.387 332.492 479.254
C 331.022 478.963 329.455 479.492 327.96 479.358
C 327.038 479.276 325.98 478.692 325.067 478.787
C 324.016 478.896 323.558 480.995 322.337 481.129
C 320.686 480.62 319.773 478.219 317.838 479.115
C 316.485 478.082 315.539 476.752 315.518 475.021
C 315.816 474.27 316.065 473.724 316.141 472.892
C 316.074 472.169 315.972 471.787 315.403 472.461
C 315.497 471.336 314.264 471.502 313.315 471.332
C 311.038 470.924 307.757 470.936 305.8 469.599
C 304.545 468.742 304.085 466.905 302.915 465.87
C 298.422 461.898 293.658 457.575 290.421 452.47
C 289.08 451.967 287.085 452.33 285.649 452.354
C 282.332 452.409 279.024 452.574 275.709 452.595
C 264.078 452.666 252.449 452.519 240.818 452.541
C 237.15 452.548 233.32 452.687 229.675 452.257
C 228.326 452.098 226.624 451.142 225.658 452.094
C 224.048 454.995 223.745 460.415 225.703 463.27
C 228.455 463.909 232.147 463.201 235.001 463.202
C 242.339 463.206 249.674 463.115 257.011 463.097
C 259.676 463.09 262.345 463.047 265.009 463.095
C 266.056 463.114 267.643 462.877 268.538 463.404
C 272.903 469.347 278.075 474.773 283.056 480.201
C 285.138 482.471 287.646 485.88 290.726 486.796
C 292.427 487.302 295.241 487.532 296.89 486.762
C 299.074 485.743 300.491 483.325 302.765 482.24
C 308.745 479.387 314.73 482.58 318.143 487.759
C 323.761 496.284 315.019 508.515 305.078 506.217
C 299.555 504.94 297.671 499.607 295.902 494.943
C 294.991 494.346 293.233 494.456 292.152 494.39
C 289.543 494.23 286.369 494.281 283.862 493.602
C 280.082 488.035 275.336 482.821 270.893 477.741
C 269.175 475.775 267.679 473.118 265.65 471.486
C 256.994 470.813 248.184 471.312 239.505 471.164
C 236.336 471.11 233.168 471.066 229.998 471.091
C 228.316 471.104 226.544 470.9 224.909 471.355
C 224.952 470.87 224.984 471.148 224.644 470.56
C 225.335 470.089 225.013 469.016 224.686 468.402
C 224.62 466.146 224.184 463.857 224.196 461.624
C 224.206 459.715 224.551 457.844 224.486 455.909
C 224.46 455.166 223.834 455.07 223.815 454.494
C 223.742 452.28 224.785 450.188 224.779 447.992
C 224.77 444.754 223.712 441.585 223.774 438.246
C 223.828 435.408 224.354 432.69 224.561 429.871
C 224.728 427.611 224.104 425.294 224.169 423.026
C 224.247 420.349 224.591 417.639 224.3 414.96 Z
M 306.966 487.871
C 306.008 488.02 304.885 488.444 304.281 489.235
C 302.785 490.129 302.681 491.402 302.227 492.893
C 300.991 496.949 305.667 502.564 310.2 501.107
C 312.249 498.031 314.669 495.537 313.387 491.481
C 312.808 489.649 308.897 485.386 306.966 487.871 Z
M 325.15 476.224
C 327.227 476.451 329.225 476.816 331.046 475.417
C 333.613 473.443 333.396 468.511 330.889 466.605
C 328.846 465.052 325.301 464.422 323.297 466.358
C 321.483 468.112 321.568 471.375 322.433 473.537
C 320.543 473.479 323.127 477.204 323.976 477.392
C 324.317 477.467 324.799 476.468 325.15 476.224 Z"
opacity="1" fill="rgb(18,116,204)" fill-rule="evenodd" />
<path d="
M 237.818 548.955
C 237.762 549.678 237.344 550.264 237.343 551.024
C 237.339 554.851 238.249 558.659 238.344 562.502
C 238.501 569.834 238.456 577.165 238.405 584.498
C 238.375 588.767 237.938 593.148 238.851 597.313
C 236.073 597.514 233.327 597.684 230.538 597.718
C 230.684 583.834 230.356 569.909 230.511 556.016
C 231.808 554.609 230.824 550.916 231.141 548.901
C 231.273 548.055 231.869 547.323 231.937 546.489
C 220.922 544.055 221.01 525.27 232.48 523.838
C 235.877 523.414 237.415 524.958 240.162 526.54
C 242.136 527.677 244.866 529.568 245.408 531.963
C 246.021 534.669 245.525 537.642 245.239 540.336
C 245.028 542.329 241.281 544.254 239.715 545.091
C 238.974 545.486 237.638 545.888 237.3 546.727
C 237.483 547.496 237.686 548.182 237.818 548.955 Z
M 239.766 532.054
C 238.98 531.381 238.364 530.548 237.406 530.085
C 233.576 528.235 230.278 531.539 229.424 534.984
C 225.732 533.885 226.698 537.79 228.006 539.84
C 228.5 540.305 229.292 541.126 229.995 541.234
C 230.402 541.297 230.357 540.797 230.761 540.917
C 231.453 541.125 231.94 541.944 232.67 542.202
C 233.32 542.431 233.885 542.012 234.506 541.905
C 236.382 541.58 238.28 541.688 239.751 540.237
C 241.466 538.546 241.307 536.246 241.196 534.045
C 241.157 533.267 240.783 531.012 239.766 532.054 Z"
opacity="1" fill="rgb(10,111,208)" fill-rule="evenodd" />
<path d="
M 224.361 401.968
C 225.073 403.216 224.297 405.019 225.313 406.117
C 227.139 406.738 230.238 406.073 232.184 405.945
C 236.101 405.688 240.241 405.736 244.181 405.829
C 246.462 405.883 249.515 406.817 251.702 406.213
C 253.527 402.909 257.192 400.828 258.717 397.328
C 259.656 395.173 259.223 392.3 259.2 390.004
C 259.151 385.072 259.159 380.131 259.19 375.199
C 259.202 373.245 259.221 371.291 259.291 369.339
C 259.321 368.521 259.616 367.389 259.411 366.614
C 252.733 364.266 248.733 356.133 251.216 349.447
C 252.289 346.558 255.417 343.914 258.114 342.581
C 260.191 341.555 263.338 341.829 265.575 342.095
C 267.627 342.339 269.179 343.478 270.715 344.785
C 277.647 350.681 275.686 363.811 266.711 366.814
C 267.16 369.922 266.819 373.315 266.832 376.459
C 266.851 381.052 267.106 385.606 267.167 390.189
C 267.2 392.684 268.028 396.904 266.946 399.178
C 266.127 400.898 264.351 402.38 263.149 403.843
C 260.477 407.097 257.583 410.165 254.842 413.359
C 252.889 414.919 248.691 413.637 246.497 413.45
C 243.355 413.181 240.213 413.321 237.072 413.147
C 235.257 413.046 233.311 412.464 231.496 412.708
C 230.615 412.827 230.304 413.746 229.479 413.966
C 228.061 413.92 226.699 413.898 225.306 414.198
C 224.976 414.517 224.717 414.762 224.3 414.96
C 224.835 410.624 224.55 406.291 224.361 401.968 Z
M 257.396 353.078
C 256.837 355.835 257.864 358.611 260.49 359.877
C 263.238 361.201 267.947 359.597 268.693 356.434
C 269.035 354.984 269.151 352.601 268.324 351.3
C 265.493 346.845 258.449 347.88 257.396 353.078 Z"
opacity="1" fill="rgb(16,107,195)" fill-rule="evenodd" />
<path d="
M 224.686 468.402
C 225.013 469.016 225.335 470.089 224.644 470.56
C 224.558 469.773 224.54 469.181 224.686 468.402 Z"
opacity="0.996" fill="rgb(23,132,220)" fill-rule="evenodd" />
<path d="
M 224.756 480.45
C 225.298 481.494 225.289 481.737 226.493 481.741
C 225.633 483.861 224.539 487.941 226.501 489.789
C 224.988 490.041 225.325 491.28 224.65 492.431
C 224.895 488.565 223.835 484.298 224.756 480.45 Z"
opacity="0.996" fill="rgb(108,176,234)" fill-rule="evenodd" />
<path d="
M 292.337 399.925
C 293.07 397.714 294.17 395.555 295.785 393.856
C 300.444 388.954 308.983 389.97 313.437 394.659
C 317.989 399.454 318.346 407.368 313.469 411.942
C 309.071 415.794 300.157 417.084 295.488 412.861
C 294.405 411.881 294.27 410.007 293.548 408.774
C 291.927 408.083 287.666 407.68 286.15 408.739
C 283.384 410.672 281.534 414.477 279.316 417
C 275.668 421.149 271.791 425.085 268.23 429.314
C 267.1 430.655 265.694 431.773 264.761 433.272
C 264.266 433.578 263.405 433.352 262.843 433.325
C 261.4 433.254 259.952 433.213 258.507 433.16
C 256.375 432.53 253.712 432.995 251.497 432.847
C 246.604 432.521 241.696 432.051 236.717 432.157
C 235.323 432.186 233.882 432.104 232.497 432.286
C 231.581 432.407 230.932 432.867 229.975 432.827
C 228.659 432.632 227.207 432.286 225.887 432.494
C 225.865 430.775 225.162 427.58 226.65 426.379
C 235.395 425.014 244.387 426.377 253.141 426.26
C 255.518 426.228 257.911 426.322 260.282 426.121
C 261.144 426.048 262.343 426.038 263.079 425.513
C 265.167 424.023 266.661 420.649 268.196 418.599
C 271.066 414.769 274.377 411.187 277.488 407.549
C 278.753 406.07 280.94 402.276 282.787 401.783
C 285.243 401.879 287.897 401.908 290.313 401.422
C 291.063 401.27 293.029 401.188 292.337 399.925 Z
M 311.104 407.672
C 311.499 408.072 311.625 408.743 312.261 408.886
C 313.284 409.116 313.99 407.731 314.289 407.008
C 315.224 404.751 315.285 403.115 314.601 400.82
C 314.289 399.776 314.136 397.65 312.463 398.422
C 311.837 398.711 311.651 399.627 311.245 400.115
C 308.691 397.616 304.523 395.056 301.053 397.493
C 298.431 399.334 297.528 405.724 300.496 407.509
C 301.691 408.15 302.636 408.609 304.017 408.69
C 305.738 412.016 308.533 408.119 311.104 407.672 Z"
opacity="1" fill="rgb(19,114,204)" fill-rule="evenodd" />
<path d="
M 226.493 481.741
C 231.655 481.877 236.832 481.775 241.997 481.816
C 243.889 481.831 246.895 481.283 248.57 482.322
C 250.123 483.285 251.235 485.465 252.429 486.829
C 255.896 490.788 259.211 494.874 262.915 498.622
C 264.223 499.946 265.745 502.167 267.48 502.91
C 268.7 502.664 269.782 501.724 270.946 501.27
C 273.927 500.108 276.702 499.378 279.896 500.332
C 288.449 502.889 291.178 513.228 286.373 520.201
C 285.101 522.048 282.508 523.009 280.786 524.428
C 279.931 526.135 280.769 530.017 280.786 532.002
C 280.823 536.167 280.803 540.333 280.833 544.499
C 280.85 546.761 281.108 549.169 280.772 551.408
C 280.403 552.32 279.183 553.075 278.452 553.714
C 276.751 555.201 274.992 556.602 273.251 558.04
C 268.102 562.289 263.125 566.928 258.124 571.35
C 258.98 579.937 256.681 589.285 258.769 597.699
C 256.099 597.669 252.895 598.677 250.3 598.026
C 249.885 591.228 250.139 584.317 250.121 577.504
C 250.116 575.55 250.128 573.593 250.078 571.639
C 250.05 570.571 249.764 569.263 250.079 568.253
C 257.998 561.512 265.384 554.104 273.198 547.245
C 273.841 545.013 273.01 541.909 272.932 539.578
C 272.758 534.42 272.578 529.174 272.9 524.021
C 269.517 522.681 265.909 520.306 264.534 516.78
C 263.682 514.598 263.789 511.755 263.927 509.454
C 263.01 508.849 261.878 508.973 260.984 508.242
C 257.398 505.31 254.38 501.008 251.377 497.486
C 249.466 495.245 247.19 491.689 244.728 490.099
C 238.664 489.992 232.567 489.675 226.501 489.789
C 224.539 487.941 225.633 483.861 226.493 481.741 Z
M 276.49 518.234
C 277.545 519.031 279.275 518.311 280.192 517.508
C 281.98 515.942 283.474 512.713 282.653 510.39
C 282.24 509.22 281.741 508.129 280.364 508.066
C 278.655 507.029 277.605 506.051 275.454 506.327
C 272.532 506.702 269.178 511.571 270.597 514.387
C 271.814 516.803 274.154 517.414 276.49 518.234 Z"
opacity="1" fill="rgb(8,112,200)" fill-rule="evenodd" />
<path d="
M 229.424 534.984
C 229.495 537.254 231.169 539.997 233.569 540.436
C 236.655 541 239.45 539.578 240.273 536.461
C 240.363 536.119 240.735 535.399 240.688 535.05
C 240.56 534.089 240.187 532.934 239.766 532.054
C 240.783 531.012 241.157 533.267 241.196 534.045
C 241.307 536.246 241.466 538.546 239.751 540.237
C 238.28 541.688 236.382 541.58 234.506 541.905
C 233.885 542.012 233.32 542.431 232.67 542.202
C 231.94 541.944 231.453 541.125 230.761 540.917
C 230.357 540.797 230.402 541.297 229.995 541.234
C 229.292 541.126 228.5 540.305 228.006 539.84
C 226.698 537.79 225.732 533.885 229.424 534.984 Z"
opacity="1" fill="rgb(40,156,229)" fill-rule="evenodd" />
<path d="
M 229.479 413.966
C 230.304 413.746 230.615 412.827 231.496 412.708
C 233.311 412.464 235.257 413.046 237.072 413.147
C 240.213 413.321 243.355 413.181 246.497 413.45
C 248.691 413.637 252.889 414.919 254.842 413.359
C 253.746 414.796 250.621 414.36 248.992 414.364
C 244.491 414.373 239.991 414.259 235.491 414.253
C 233.742 414.25 231.073 414.763 229.479 413.966 Z"
opacity="0.996" fill="rgb(91,193,250)" fill-rule="evenodd" />
<path d="
M 229.975 432.827
C 230.932 432.867 231.581 432.407 232.497 432.286
C 233.882 432.104 235.323 432.186 236.717 432.157
C 241.696 432.051 246.604 432.521 251.497 432.847
C 253.712 432.995 256.375 432.53 258.507 433.16
C 251.998 432.932 245.446 433.411 238.889 433.393
C 236.233 433.386 232.452 433.873 229.975 432.827 Z"
opacity="0.996" fill="rgb(71,204,232)" fill-rule="evenodd" />
<path d="
M 276.49 518.234
C 277.773 518.314 279 517.871 279.861 516.903
C 281.067 515.28 282.066 512.675 281.497 510.641
C 281.24 509.723 280.647 508.967 280.364 508.066
C 281.741 508.129 282.24 509.22 282.653 510.39
C 283.474 512.713 281.98 515.942 280.192 517.508
C 279.275 518.311 277.545 519.031 276.49 518.234 Z"
opacity="1" fill="rgb(16,134,217)" fill-rule="evenodd" />
<path d="
M 311.245 400.115
C 311.95 402.782 311.733 404.982 311.104 407.672
C 308.533 408.119 305.738 412.016 304.017 408.69
C 309.451 408.676 312.357 401.526 307.444 398.226
C 305.449 396.885 301.3 397.221 299.937 399.337
C 298.34 401.817 298.992 405.211 300.496 407.509
C 297.528 405.724 298.431 399.334 301.053 397.493
C 304.523 395.056 308.691 397.616 311.245 400.115 Z"
opacity="1" fill="rgb(61,175,238)" fill-rule="evenodd" />
<path d="
M 304.281 489.235
C 303.627 490.612 303.025 491.846 302.803 493.375
C 302.676 494.253 302.555 495.228 302.79 496.098
C 303.792 499.804 308.826 500.042 311.35 497.883
C 312.804 496.638 313.127 493.995 312.644 492.243
C 312.354 491.19 311.662 490.232 310.904 489.467
C 309.52 488.073 308.513 488.579 306.966 487.871
C 308.897 485.386 312.808 489.649 313.387 491.481
C 314.669 495.537 312.249 498.031 310.2 501.107
C 305.667 502.564 300.991 496.949 302.227 492.893
C 302.681 491.402 302.785 490.129 304.281 489.235 Z"
opacity="0.996" fill="rgb(54,175,233)" fill-rule="evenodd" />
<path d="
M 311.245 400.115
C 311.651 399.627 311.837 398.711 312.463 398.422
C 314.136 397.65 314.289 399.776 314.601 400.82
C 315.285 403.115 315.224 404.751 314.289 407.008
C 313.99 407.731 313.284 409.116 312.261 408.886
C 311.625 408.743 311.499 408.072 311.104 407.672
C 311.733 404.982 311.95 402.782 311.245 400.115 Z"
opacity="1" fill="rgb(2,64,150)" fill-rule="evenodd" />
<path d="
M 315.403 472.461
C 315.972 471.787 316.074 472.169 316.141 472.892
C 316.065 473.724 315.816 474.27 315.518 475.021
C 315.529 474.169 315.481 473.309 315.403 472.461 Z"
opacity="1" fill="rgb(24,116,214)" fill-rule="evenodd" />
<path d="
M 324.412 415.096
C 328.574 415.122 333.805 414.341 337.025 417.904
C 335.861 417.707 335.059 418.919 335.188 419.981
C 335.287 420.796 335.932 421.516 336.261 422.249
C 337.171 424.278 338.196 429.024 336.05 430.618
C 333.54 432.482 327.92 433.694 325.464 431.186
C 323.984 429.674 324.43 427.178 322.389 426.241
C 321.73 425.351 320.592 424.919 319.994 426.141
C 319.292 426.09 318.619 426.126 317.918 426.17
C 318.032 425.348 317.751 424.369 317.868 423.473
C 318.275 420.36 320.713 415.105 324.412 415.096 Z
M 324.712 424.972
C 324.719 426.092 324.892 427.072 325.243 428.135
C 326.689 432.509 332.876 432.454 334.837 428.58
C 335.604 427.065 335.192 425.305 334.52 423.836
C 334.078 422.869 333.486 421.946 332.619 421.312
C 331.445 418.411 326.689 419.625 325.138 421.633
C 324.179 422.875 324.703 423.577 324.712 424.972 Z"
opacity="1" fill="rgb(27,120,204)" fill-rule="evenodd" />
<path d="
M 317.838 479.115
C 319.773 478.219 320.686 480.62 322.337 481.129
C 325.38 484.276 331.134 482.235 333.967 479.921
C 340.051 476.888 339.042 466.407 334.553 462.619
C 333.492 461.723 332.222 460.853 330.913 460.365
C 329.613 459.879 328.121 460.526 328.011 458.695
C 330.3 458.891 332.537 459.631 334.339 461.097
C 336.451 462.814 338.283 465.095 339.187 467.688
C 343.599 480.331 325.803 490.092 317.838 479.115 Z"
opacity="1" fill="rgb(44,153,229)" fill-rule="evenodd" />
<path d="
M 322.389 426.241
C 321.59 426.209 320.793 426.168 319.994 426.141
C 320.592 424.919 321.73 425.351 322.389 426.241 Z"
opacity="0.996" fill="rgb(89,148,239)" fill-rule="evenodd" />
<path d="
M 322.433 473.537
C 323.096 474.741 324.19 475.319 325.15 476.224
C 324.799 476.468 324.317 477.467 323.976 477.392
C 323.127 477.204 320.543 473.479 322.433 473.537 Z"
opacity="0.996" fill="rgb(28,168,230)" fill-rule="evenodd" />
<path d="
M 322.337 481.129
C 323.558 480.995 324.016 478.896 325.067 478.787
C 325.98 478.692 327.038 479.276 327.96 479.358
C 329.455 479.492 331.022 478.963 332.492 479.254
C 333.162 479.387 333.242 479.947 333.967 479.921
C 331.134 482.235 325.38 484.276 322.337 481.129 Z"
opacity="0.996" fill="rgb(18,89,195)" fill-rule="evenodd" />
<path d="
M 340.408 420.536
C 339.123 419.819 338.333 418.508 337.025 417.904
C 333.805 414.341 328.574 415.122 324.412 415.096
C 325.523 413.564 327.796 413.689 329.507 413.709
C 334.412 413.768 338.457 415.917 340.408 420.536 Z"
opacity="1" fill="rgb(69,166,233)" fill-rule="evenodd" />
<path d="
M 332.619 421.312
C 330.472 420.332 326.909 420.428 325.48 422.585
C 325.013 423.29 324.994 424.196 324.712 424.972
C 324.703 423.577 324.179 422.875 325.138 421.633
C 326.689 419.625 331.445 418.411 332.619 421.312 Z"
opacity="1" fill="rgb(90,207,240)" fill-rule="evenodd" />
<path d="
M 380.713 472.304
C 385.475 472.283 390.242 472.347 395.008 472.373
C 397.482 472.386 400.149 472.644 402.594 472.273
C 402.857 473.499 402.674 474.779 402.952 476.017
C 403.703 479.364 406.135 482.226 409.298 483.529
C 416.111 486.337 427.337 484.379 428.067 475.567
C 428.163 474.413 428.073 473.311 427.788 472.189
C 425.85 464.575 415.695 462.944 409.322 460.838
C 398.376 457.22 384.952 452.646 381.843 440.137
C 381.204 437.564 381.001 434.807 381.102 432.161
C 381.207 429.394 381.592 426.672 382.564 424.067
C 389.574 405.299 415.956 402.163 432.116 409.689
C 441.42 414.022 448.461 422.715 448.172 433.397
C 443.101 433.366 438.029 433.568 432.955 433.577
C 430.971 433.58 428.235 434.009 426.349 433.367
C 424.499 427.487 421.902 423.46 415.294 422.777
C 412.921 422.531 410.293 422.522 408.097 423.568
C 403.852 425.59 401.195 430.861 403.053 435.397
C 405.76 442.007 413.407 443.264 419.4 445.575
C 428.715 449.166 441.556 452.668 446.733 462.072
C 448.108 464.57 448.587 467.042 449.128 469.798
C 449.601 472.212 449.156 474.868 448.833 477.275
C 448.301 481.247 446.778 484.981 444.599 488.332
C 440.299 494.946 432.384 498.868 424.828 500.374
C 408.333 503.661 385.088 497.605 381.591 478.645
C 381.205 476.555 380.702 474.439 380.713 472.304 Z"
opacity="1" fill="rgb(2,4,59)" fill-rule="evenodd" />
<path d="
M 397.542 526.122
C 397.495 525.382 397.416 525.799 398.174 525.018
C 401.29 524.723 404.521 524.838 407.654 524.911
C 408.409 525.97 407.748 529.164 407.757 530.509
C 407.793 536.007 407.798 541.507 407.797 547.006
C 407.793 561.353 408.164 575.665 408.271 590.005
C 408.305 594.504 408.27 599.006 408.221 603.505
C 408.201 605.417 407.754 607.911 408.208 609.745
C 405.074 609.301 401.023 609.37 397.915 609.95
C 397.068 608.513 397.753 605.189 397.78 603.5
C 397.866 598.169 397.821 592.833 397.794 587.502
C 397.729 574.501 397.782 561.502 397.805 548.502
C 397.817 541.087 398.226 533.507 397.542 526.122 Z"
opacity="1" fill="rgb(16,94,190)" fill-rule="evenodd" />
<path d="
M 423.461 572.588
C 425.685 564.775 428.727 558.032 435.159 552.709
C 447.193 542.75 467.421 543.658 478.328 554.982
C 483.747 560.607 487.016 567.646 487.871 575.397
C 488.145 577.888 487.751 580.408 487.816 582.905
C 469.835 583.552 451.772 582.342 433.766 583.25
C 434.613 589.949 438.871 597.048 445.143 600.013
C 448.917 601.797 452.927 602.035 457.026 601.908
C 459.921 601.819 462.744 601.538 465.397 600.301
C 468.2 598.995 471.325 596.745 473.049 594.139
C 473.791 593.016 474.04 591.295 474.934 590.366
C 477.167 590.581 479.446 590.556 481.688 590.544
C 482.822 590.538 484.27 590.304 485.247 590.945
C 485.439 591.899 484.854 592.843 484.51 593.717
C 483.737 595.682 483.05 597.59 481.789 599.305
C 476.589 606.379 468.725 609.771 460.303 611.44
C 456.469 612.2 452.346 611.624 448.595 610.715
C 444.174 609.643 439.854 608.244 436.128 605.55
C 433.295 603.503 430.958 600.442 429.093 597.519
C 424.362 590.107 421.675 581.45 423.461 572.588 Z
M 434.914 570.07
C 434.587 571.349 434.617 572.477 434.706 573.783
C 435.368 574.243 437.154 573.932 437.993 573.929
C 440.663 573.922 443.334 573.924 446.003 573.895
C 456.256 573.783 466.623 574.318 476.859 573.808
C 476.348 567.471 472.372 560.497 466.544 557.61
C 463.212 555.96 458.687 555.376 455.001 555.562
C 452.12 555.706 449.365 555.603 446.653 556.783
C 440.895 559.288 437.148 564.382 434.914 570.07 Z"
opacity="1" fill="rgb(18,95,192)" fill-rule="evenodd" />
<path d="
M 462.853 424.452
C 463.643 423.451 466.474 423.914 467.724 423.9
C 471.384 423.861 475.053 423.795 478.713 423.84
C 479.908 423.855 481.808 423.493 482.914 423.928
C 482.345 435.056 482.767 446.358 482.816 457.503
C 482.841 463.406 482.11 470.208 484.618 475.729
C 489.556 486.597 505.973 486.197 511.528 476.212
C 514.396 471.057 513.554 464.463 513.56 458.734
C 513.571 447.109 513.16 435.44 513.297 423.829
C 520.007 423.353 526.782 424.097 533.493 423.873
C 534.015 442.224 533.688 460.639 533.674 479.002
C 533.671 484.169 533.661 489.336 533.681 494.503
C 533.687 495.929 533.754 497.358 533.751 498.782
C 533.75 499.102 533.586 499.844 533.741 500.133
C 527.553 499.374 520.709 499.626 514.469 499.94
C 513.893 499.371 514.079 498.29 514.09 497.5
C 514.122 495.178 514.23 492.892 514.148 490.574
C 512.754 490.835 512.216 491.999 511.325 493.013
C 510.153 494.346 508.862 495.484 507.41 496.506
C 502.606 499.882 496.831 501.409 490.988 501.352
C 487.772 501.321 484.592 500.775 481.567 499.675
C 479.374 498.877 477.271 497.759 475.317 496.488
C 461.584 487.551 462.8 469.88 462.87 455.501
C 462.89 451.336 462.853 447.169 462.842 443.004
C 462.825 436.859 462.518 430.582 462.853 424.452 Z"
opacity="1" fill="rgb(3,4,57)" fill-rule="evenodd" />
<path d="
M 499.985 575.599
C 500.733 571.704 501.27 567.647 503.137 564.084
C 509.453 552.028 521.856 544.394 535.652 545.965
C 537.376 546.161 539.145 546.206 540.806 546.756
C 546.965 548.795 551.725 552.758 556.114 557.305
C 556.145 557.306 555.913 554.416 555.916 554.042
C 555.932 551.782 556.251 549.561 556.401 547.306
C 558.466 546.675 561.516 547.286 563.699 547.278
C 564.439 547.275 565.741 547.031 566.338 547.504
C 565.857 555.783 566.482 564.219 566.555 572.5
C 566.615 579.317 566.402 586.176 566.381 593.003
C 566.368 597.222 566.431 601.423 566.607 605.636
C 566.653 606.738 566.24 609.233 566.775 610.139
C 563.305 609.812 559.816 609.807 556.349 610.061
C 556.562 607.463 556.411 604.699 556.238 602.1
C 556.205 601.608 556.323 599.608 555.728 599.971
C 553.617 604.126 549.608 606.609 545.54 608.534
C 542.914 609.776 540.23 610.963 537.359 611.511
C 530.644 612.794 522.704 610.826 516.729 607.686
C 505.546 601.808 498.541 588.055 499.985 575.599 Z
M 510.959 574.611
C 509.648 585.041 514.687 596.341 524.719 600.663
C 537.007 605.957 553.715 597.393 555.588 583.936
C 556.2 579.533 556.387 574.536 554.629 570.345
C 553.805 568.382 552.522 566.587 551.361 564.813
C 550.087 562.867 548.83 560.495 546.849 559.17
C 541.83 555.814 533.385 554.302 527.545 555.89
C 519.179 558.166 512.05 565.931 510.959 574.611 Z"
opacity="1" fill="rgb(16,95,193)" fill-rule="evenodd" />
<path d="
M 551.508 408.104
C 551.524 407.945 551.54 407.786 551.557 407.627
C 552.934 406.665 555.842 407.207 557.51 407.203
C 562.343 407.192 567.175 407.269 572.008 407.289
C 584.276 407.339 598.964 405.576 609.471 413.402
C 619.999 421.244 623.796 436.705 617.813 448.641
C 614.532 455.186 609.254 459.754 602.679 462.836
C 593.023 467.36 581.921 464.831 571.732 465.781
C 571.059 468.162 571.484 471.05 571.476 473.509
C 571.46 478.676 571.463 483.843 571.453 489.01
C 571.448 491.707 571.47 494.395 571.599 497.088
C 571.643 498.016 571.441 499.278 571.697 500.15
C 565.025 499.897 558.293 500.05 551.602 499.839
C 550.949 491.008 551.219 481.843 551.531 472.991
C 551.835 464.344 551.539 455.612 551.546 446.956
C 551.552 438.663 551.605 430.366 551.529 422.073
C 551.488 417.491 551.019 412.659 551.508 408.104 Z
M 571.481 424.511
C 571.656 430.188 571.603 435.884 571.577 441.557
C 571.565 443.99 570.9 446.92 571.658 449.266
C 579.256 448.659 588.646 451.263 595.25 446.472
C 601.892 441.653 601.302 429.612 594.125 425.639
C 591.659 424.273 589.232 424.266 586.509 424.067
C 581.684 423.714 576.566 423.57 571.744 424.047
C 571.656 424.202 571.569 424.356 571.481 424.511 Z"
opacity="1" fill="rgb(3,4,58)" fill-rule="evenodd" />
<path d="
M 586.479 550.11
C 586.528 549.287 586.597 548.472 586.62 547.647
C 589.924 547.179 593.356 547.461 596.669 547.644
C 597.057 548.422 596.935 549.556 596.964 550.43
C 597.026 552.285 597.344 554.141 597.381 555.99
C 598.776 554.676 599.413 552.67 600.935 551.291
C 605.327 547.311 611.563 546.042 617.31 546.172
C 617.949 549.591 616.276 553.82 617.266 557.192
C 613.372 557.29 609.548 556.738 605.888 558.588
C 599.485 561.825 597.254 568.152 596.847 574.919
C 596.162 586.323 596.557 598.002 596.818 609.419
C 593.683 610.138 589.327 609.883 586.121 609.662
C 586.451 595.612 586.248 581.552 586.374 567.497
C 586.425 561.752 585.947 555.83 586.479 550.11 Z"
opacity="1" fill="rgb(14,93,192)" fill-rule="evenodd" />
<path d="
M 630.012 609.126
C 630.755 597.661 630.228 585.988 630.271 574.5
C 630.305 565.691 631.035 556.52 630.272 547.748
C 632.671 547.608 635.11 547.699 637.513 547.751
C 638.164 547.765 639.866 547.534 640.299 547.993
C 640.201 550.292 640.621 552.597 640.497 554.882
C 642.879 553.828 644.999 551.24 647.092 549.684
C 649.357 547.999 652.347 546.971 655.113 546.505
C 658.496 545.936 661.882 546.074 665.286 546.316
C 675.002 547.006 683.018 554.974 685.4 564.124
C 686.749 569.308 686.367 574.697 686.356 580.002
C 686.335 589.752 685.736 599.815 686.467 609.531
C 685.591 609.935 684.164 609.67 683.211 609.69
C 680.638 609.744 678.016 609.576 675.461 609.925
C 675.217 600.053 675.71 590.049 675.735 580.158
C 675.746 575.66 676.436 570.045 674.74 565.781
C 674.054 564.059 672.797 561.268 671.517 559.924
C 670.115 558.452 667.981 557.519 666.114 556.822
C 660.709 554.805 654.138 554.337 649.15 557.814
C 647.707 558.82 645.775 559.425 644.915 561.022
C 643.604 563.458 642.117 566.014 641.437 568.709
C 641.013 570.387 641.229 572.19 641.105 573.905
C 640.825 577.769 640.777 581.627 640.785 585.503
C 640.801 593.59 640.882 601.681 640.859 609.766
C 638.416 609.66 635.939 609.706 633.492 609.719
C 632.478 609.725 630.899 610.113 630.018 609.686
C 630.016 609.499 630.014 609.312 630.012 609.126 Z"
opacity="1" fill="rgb(15,95,190)" fill-rule="evenodd" />
<path d="
M 631.165 424.196
C 637.707 423.867 644.327 424.546 650.848 424.083
C 651.22 424.582 651.094 426.373 651.107 427.089
C 651.146 429.387 650.977 431.779 651.406 434.047
C 652.884 432.642 653.764 430.514 655.297 429.035
C 659.789 424.703 666.662 421.722 672.995 422.348
C 672.689 426.069 673.216 429.975 673.28 433.715
C 673.331 436.694 672.932 439.973 673.3 442.906
C 667.149 443.013 660.277 442.65 655.69 447.544
C 651.654 451.851 651.396 457.658 651.333 463.216
C 651.244 471.161 651.452 479.108 651.419 487.053
C 651.402 491.178 650.767 495.882 651.401 499.942
C 644.937 499.432 637.946 499.46 631.478 499.902
C 630.832 497.987 631.33 495.037 631.328 493.006
C 631.325 488.005 631.333 483.005 631.331 478.004
C 631.325 460.182 632.677 441.97 631.165 424.196 Z"
opacity="1" fill="rgb(4,5,57)" fill-rule="evenodd" />
<path d="
M 679.431 457.094
C 681.361 446.82 684.883 437.687 693.111 430.723
C 707.774 418.311 732.774 419.694 745.855 433.667
C 754.464 442.863 757.778 456.481 755.848 468.809
C 742.297 469.485 728.571 468.748 715 468.781
C 711.667 468.79 708.333 468.818 705 468.774
C 703.167 468.75 701.166 468.4 699.357 468.71
C 699.728 481.152 713.975 487.356 724.598 483.326
C 728.754 481.75 731.051 479.016 733.472 475.487
C 738.31 475.66 743.193 475.64 748.036 475.584
C 750.084 475.561 752.724 475.964 754.686 475.441
C 754.731 475.444 753.397 478.605 753.246 478.924
C 751.535 482.555 749.818 486.036 747.18 489.113
C 740.061 497.416 729.229 501.294 718.525 501.586
C 704.144 501.978 689.944 494.499 683.349 481.525
C 679.623 474.195 678.477 465.221 679.431 457.094 Z
M 699.919 453.072
C 699.832 453.597 699.698 454.103 699.564 454.617
C 708.018 454.254 716.543 454.521 725.007 454.535
C 728.673 454.542 732.857 455.159 736.46 454.463
C 736.385 452.11 735.28 449.882 734.06 447.917
C 729.257 440.184 719.901 437.113 711.231 440.276
C 705.115 442.507 702.018 447.248 699.919 453.072 Z"
opacity="1" fill="rgb(3,4,59)" fill-rule="evenodd" />
<path d="
M 704.823 524.242
C 708.606 524.308 712.474 524.423 716.244 524.041
C 716.69 526.931 716.316 530.078 716.348 533.002
C 716.359 534.04 716.797 535.771 716.422 536.735
C 712.753 536.769 709.068 536.36 705.419 536.45
C 704.873 535.487 705.259 533.698 705.264 532.586
C 705.278 529.819 705.264 526.975 704.823 524.242 Z"
opacity="1" fill="rgb(15,95,185)" fill-rule="evenodd" />
<path d="
M 705.244 547.736
C 708.553 547.6 711.878 547.649 715.19 547.58
C 715.747 548.487 715.618 550.796 715.634 551.932
C 715.689 555.623 715.702 559.314 715.708 563.006
C 715.724 574.005 715.73 585.005 715.763 596.005
C 715.773 599.274 715.749 602.543 715.765 605.812
C 715.771 606.868 716.273 608.802 715.923 609.747
C 712.513 609.794 709.098 609.653 705.689 609.763
C 705.017 608.843 705.391 606.331 705.384 605.187
C 705.36 601.291 705.412 597.394 705.394 593.497
C 705.348 583.166 705.289 572.834 705.244 562.503
C 705.222 557.61 705.53 552.614 705.244 547.736 Z"
opacity="1" fill="rgb(18,91,182)" fill-rule="evenodd" />
<path d="
M 735.473 548.606
C 735.557 547.966 735.54 548.366 735.383 547.408
C 738.487 546.832 742.518 547.041 745.655 547.41
C 746.035 549.695 745.358 552.141 745.922 554.453
C 747.464 553.535 748.711 551.797 750.165 550.681
C 752.71 548.726 755.961 547.36 759.087 546.686
C 762.684 545.91 766.319 545.979 769.965 546.244
C 772.453 546.425 774.827 547.298 777.091 548.297
C 784.855 551.723 790.21 559.121 791.575 567.416
C 792.417 572.532 791.931 577.946 791.922 583.109
C 791.913 588.158 792.16 593.192 792.171 598.241
C 792.179 601.966 791.802 605.979 792.394 609.661
C 788.797 609.857 785.101 609.608 781.461 609.839
C 781.649 600.713 781.445 591.593 781.409 582.461
C 781.388 577.395 781.987 571.397 780.184 566.546
C 779.431 564.52 778.133 561.952 776.647 560.372
C 770.103 553.414 758.273 553.946 751.277 559.683
C 749.473 562.14 747.414 565.949 746.795 568.952
C 746.075 572.443 746.415 576.567 746.371 580.133
C 746.302 585.758 746.339 591.38 746.366 597.005
C 746.381 600.168 746.334 603.339 746.436 606.501
C 746.466 607.437 746.366 609.311 746.809 610.104
C 744.399 609.55 741.466 609.823 738.998 609.821
C 737.951 609.821 736.611 610.081 735.652 609.66
C 735.391 589.343 735.052 568.912 735.473 548.606 Z"
opacity="1" fill="rgb(19,98,192)" fill-rule="evenodd" />
<path d="
M 768.991 471.616
C 769.492 467.167 769.17 462.48 769.196 458.003
C 769.25 448.837 769.196 439.67 769.198 430.504
C 769.2 425.504 769.237 420.505 769.221 415.505
C 769.213 412.869 769.464 409.919 768.825 407.361
C 773.339 406.988 777.975 407.293 782.507 407.271
C 786.097 407.254 789.973 406.855 793.531 407.287
C 800.116 423.523 806.749 439.757 813.456 455.949
C 815.986 462.057 819.113 468.297 821.026 474.616
C 822.099 474.022 822.666 471.284 823.198 470.136
C 825.209 465.792 826.921 461.267 828.69 456.82
C 832.83 446.407 837.116 436.05 841.268 425.64
C 843.667 419.628 845.649 413.282 848.522 407.48
C 850.033 406.657 853.319 407.279 855.058 407.281
C 859.209 407.287 863.36 407.265 867.512 407.256
C 869.316 407.252 871.735 406.82 873.453 407.359
C 872.825 420.182 873.596 433.19 873.682 446.028
C 873.801 464.004 873.484 481.994 873.364 499.953
C 868.72 500.277 864.014 499.764 859.358 500.02
C 857.868 500.102 856.376 500.068 854.885 500.125
C 854.486 500.14 853.713 500.324 853.368 500.122
C 853.974 485.286 853.16 470.356 853.296 455.507
C 853.331 451.678 853.39 447.849 853.416 444.022
C 853.424 442.896 853.91 440.883 853.079 440.057
C 851.449 445.127 849.051 450.067 847.038 455.006
C 842.563 465.983 838.422 477.097 834.357 488.223
C 832.919 492.158 831.14 496.045 829.88 500.034
C 829.287 500.637 826.169 500.091 825.29 500.087
C 821.04 500.071 816.768 499.795 812.521 500.013
C 811.583 498.724 811.164 496.888 810.583 495.407
C 809.196 491.869 807.946 488.271 806.639 484.704
C 803.433 475.962 799.895 467.333 796.436 458.688
C 794.821 454.649 793.28 450.574 791.724 446.511
C 791.215 445.18 790.666 443.858 790.097 442.555
C 789.769 441.804 789.874 439.85 789.173 440.276
C 788.949 440.411 789.032 443.219 788.992 443.833
C 788.745 447.628 788.636 451.862 789.077 455.635
C 789.54 459.601 788.976 464.003 788.962 468.01
C 788.927 478.626 788.468 489.344 788.863 499.949
C 787.512 500.474 785.064 499.978 783.583 499.964
C 780.503 499.934 777.387 499.806 774.312 500.014
C 772.832 500.114 770.345 500.569 768.989 499.977
C 768.791 496.034 769.132 491.969 769.115 488.005
C 769.091 482.56 768.769 477.054 768.991 471.616 Z"
opacity="1" fill="rgb(3,5,58)" fill-rule="evenodd" />
<path d="
M 807.469 575.11
C 808.148 570.133 809.035 565.159 811.694 560.791
C 819.105 548.616 834.791 542.942 848.339 547.069
C 852.123 548.221 855.817 550.637 858.697 553.329
C 860.139 554.678 861.459 556.775 863.081 557.847
C 863.384 556.914 862.931 555.572 862.904 554.601
C 862.836 552.168 862.997 549.738 862.915 547.308
C 865.415 546.86 868.155 547.327 870.699 547.185
C 871.437 547.144 873.099 546.777 873.668 547.23
C 873.607 565.922 873.94 584.633 873.69 603.329
C 873.626 608.177 872.612 612.63 871.018 617.197
C 870.37 619.054 870.362 621.112 868.536 621.953
C 866.615 629.497 857.46 634.377 850.468 635.848
C 835.756 638.943 818.948 635.269 811.571 620.927
C 810.877 619.578 810.958 617.951 810.543 616.515
C 811.726 615.736 812.713 616.078 814.088 616.075
C 815.905 616.072 817.73 615.807 819.555 615.787
C 820.339 615.778 821.676 615.6 822.264 616.122
C 825.72 628.202 841.501 630.349 851.681 625.546
C 854.975 623.992 858.383 621.838 860.001 618.444
C 862.007 614.236 862.964 609.135 863.239 604.495
C 863.302 603.432 863.764 600.347 862.439 600.177
C 857.684 604.779 852.511 608.682 845.899 610.094
C 837.915 611.799 828.014 610.434 821.185 605.778
C 811.568 599.221 806.478 586.489 807.469 575.11 Z
M 817.946 574.593
C 817.367 577.889 817.569 581.032 818.493 584.222
C 820.426 590.891 824.22 596.225 830.587 599.368
C 832.82 600.47 835.025 600.752 837.457 601.007
C 849.327 602.252 860.389 594.54 862.46 582.398
C 863.918 573.852 860.302 563.647 852.848 558.671
C 850.887 557.361 848.525 556.785 846.264 556.235
C 836.842 553.944 827.695 556.413 821.934 564.478
C 819.778 567.496 818.581 570.972 817.946 574.593 Z"
opacity="1" fill="rgb(22,97,192)" fill-rule="evenodd" />
<path d="
M 886.924 456.098
C 888.574 447.634 891.461 439.461 897.634 433.168
C 912.091 418.431 938.281 418.615 952.429 433.476
C 959.184 440.572 962.806 450.501 962.863 460.245
C 962.874 462.271 962.856 464.297 962.847 466.322
C 962.844 466.944 962.916 468.328 962.405 468.748
C 957.161 469.163 951.762 468.808 946.501 468.821
C 933.162 468.853 919.785 468.496 906.453 468.815
C 907.5 481.394 921.465 488.025 932.571 482.851
C 936.043 481.232 938.187 478.714 940.162 475.534
C 941.308 474.772 944.435 475.399 945.872 475.4
C 950.933 475.404 955.981 475.564 961.038 475.406
C 961.377 475.785 960.909 476.793 960.779 477.234
C 960.235 479.082 959.309 480.893 958.389 482.578
C 954.706 489.322 949.091 495.078 941.938 498.135
C 927.611 504.257 908.936 502.476 897.62 491.172
C 888.604 482.166 885.265 468.511 886.924 456.098 Z
M 906.977 453.596
C 906.825 454.359 906.883 454.002 906.795 454.665
C 910.113 454.248 913.672 454.581 917.014 454.628
C 925.695 454.749 934.757 455.379 943.406 454.71
C 943.655 452.948 942.129 450.428 941.321 448.954
C 938.706 444.178 935.046 440.611 929.556 439.569
C 919.261 437.614 909.341 443.242 906.977 453.596 Z"
opacity="1" fill="rgb(3,3,58)" fill-rule="evenodd" />

</svg>